<svg xmlns="http://www.w3.org/2000/svg" viewBox="0 0 512 512">
  <defs>
    <linearGradient id="bg" x1="0" y1="0" x2="1" y2="1">
      <stop offset="0" stop-color="#e8ddd4"/>
      <stop offset="1" stop-color="#b9cfbd"/>
    </linearGradient>
    <pattern id="fan" width="96" height="96" patternUnits="userSpaceOnUse">
      <g fill="none" stroke="#365c43" stroke-width="3" opacity=".18">
        <path d="M48 96V48M48 96L16 48M48 96L80 48M48 96L0 70M48 96L96 70"/>
        <circle cx="48" cy="48" r="8"/>
      </g>
    </pattern>
  </defs>
  <rect width="512" height="512" rx="116" fill="url(#bg)"/>
  <rect width="512" height="512" rx="116" fill="url(#fan)"/>
  <path d="M134 116h204c25 0 44 20 44 44v244H178c-24 0-44-20-44-44V116Z" fill="#fffaf2" stroke="#365c43" stroke-width="18"/>
  <path d="M134 116h48v288h-4c-24 0-44-20-44-44V116Z" fill="#5d9166"/>
  <path d="M212 214h126M212 258h126M212 302h90" stroke="#365c43" stroke-linecap="round" stroke-width="17"/>
</svg>
